<?xml version="1.0" encoding="utf-8" standalone="no"?>
<!DOCTYPE svg PUBLIC "-//W3C//DTD SVG 1.1//EN"
  "http://www.w3.org/Graphics/SVG/1.1/DTD/svg11.dtd">
<svg height="720pt" version="1.1" viewBox="0 0 720 720" width="720pt" xmlns="http://www.w3.org/2000/svg" xmlns:xlink="http://www.w3.org/1999/xlink">
 <metadata>
  <rdf:RDF xmlns:cc="http://creativecommons.org/ns#" xmlns:dc="http://purl.org/dc/elements/1.1/" xmlns:rdf="http://www.w3.org/1999/02/22-rdf-syntax-ns#">
   <cc:Work>
    <dc:type rdf:resource="http://purl.org/dc/dcmitype/StillImage"/>
    <dc:date>2021-10-31T23:46:21.528342</dc:date>
    <dc:format>image/svg+xml</dc:format>
    <dc:creator>
     <cc:Agent>
      <dc:title>Matplotlib v3.4.3, https://matplotlib.org/</dc:title>
     </cc:Agent>
    </dc:creator>
   </cc:Work>
  </rdf:RDF>
 </metadata>
 <defs>
  <style type="text/css">*{stroke-linecap:butt;stroke-linejoin:round;}</style>
 </defs>
 <g id="figure_1">
  <g id="patch_1">
   <path d="M 0 720 
L 720 720 
L 720 0 
L 0 0 
z
" style="fill:none;"/>
  </g>
  <g id="axes_1">
   <g id="patch_2">
    <path d="M 90 630 
L 648 630 
L 648 86.4 
L 90 86.4 
z
" style="fill:#edead6;"/>
   </g>
   <g id="matplotlib.axis_1">
    <g id="xtick_1">
     <g id="line2d_1">
      <path clip-path="url(#pe38dfa3148)" d="M 166.090909 630 
L 166.090909 86.4 
" style="fill:none;stroke:#b0b0b0;stroke-dasharray:2.96,1.28;stroke-dashoffset:0;stroke-width:0.8;"/>
     </g>
     <g id="line2d_2">
      <defs>
       <path d="M 0 0 
L 0 3.5 
" id="m3819888c17" style="stroke:#000000;stroke-width:0.8;"/>
      </defs>
      <g>
       <use style="stroke:#000000;stroke-width:0.8;" x="166.090909" xlink:href="#m3819888c17" y="630"/>
      </g>
     </g>
     <g id="text_1">
      <!-- −0.4 -->
      <g transform="translate(151.370128 647.22)scale(0.14 -0.14)">
       <defs>
        <path d="M 3488 2266 
L 3488 1786 
L 378 1786 
L 378 2266 
L 3488 2266 
z
" id="WorkSans-Regular-2212" transform="scale(0.015625)"/>
        <path d="M 1990 -64 
Q 1274 -64 845 493 
Q 416 1050 416 2112 
Q 416 3174 845 3731 
Q 1274 4288 1990 4288 
Q 2714 4288 3139 3731 
Q 3565 3174 3565 2112 
Q 3565 1050 3139 493 
Q 2714 -64 1990 -64 
z
M 1990 397 
Q 2330 397 2563 592 
Q 2797 787 2915 1171 
Q 3034 1555 3034 2112 
Q 3034 2669 2915 3053 
Q 2797 3437 2563 3632 
Q 2330 3827 1990 3827 
Q 1651 3827 1417 3632 
Q 1184 3437 1065 3053 
Q 947 2669 947 2112 
Q 947 1555 1065 1171 
Q 1184 787 1417 592 
Q 1651 397 1990 397 
z
" id="WorkSans-Regular-30" transform="scale(0.015625)"/>
        <path d="M 851 768 
Q 1037 768 1152 653 
Q 1267 538 1267 352 
Q 1267 166 1152 51 
Q 1037 -64 851 -64 
Q 666 -64 550 51 
Q 435 166 435 352 
Q 435 538 550 653 
Q 666 768 851 768 
z
" id="WorkSans-Regular-2e" transform="scale(0.015625)"/>
        <path d="M 2342 0 
L 2342 1107 
L 282 1107 
L 282 1485 
Q 282 1485 282 1485 
Q 282 1485 282 1485 
L 2208 4224 
L 2854 4224 
L 2854 1549 
L 3603 1549 
L 3603 1107 
L 2854 1107 
L 2854 0 
L 2342 0 
z
M 826 1549 
L 2342 1549 
L 2342 3130 
Q 2342 3296 2352 3469 
Q 2362 3642 2368 3808 
L 2355 3808 
Q 2278 3648 2156 3449 
Q 2035 3251 1933 3104 
L 826 1549 
Q 826 1549 826 1549 
Q 826 1549 826 1549 
z
" id="WorkSans-Regular-34" transform="scale(0.015625)"/>
       </defs>
       <use xlink:href="#WorkSans-Regular-2212"/>
       <use x="60.399994" xlink:href="#WorkSans-Regular-30"/>
       <use x="122.599991" xlink:href="#WorkSans-Regular-2e"/>
       <use x="149.199982" xlink:href="#WorkSans-Regular-34"/>
      </g>
     </g>
    </g>
    <g id="xtick_2">
     <g id="line2d_3">
      <path clip-path="url(#pe38dfa3148)" d="M 267.545455 630 
L 267.545455 86.4 
" style="fill:none;stroke:#b0b0b0;stroke-dasharray:2.96,1.28;stroke-dashoffset:0;stroke-width:0.8;"/>
     </g>
     <g id="line2d_4">
      <g>
       <use style="stroke:#000000;stroke-width:0.8;" x="267.545455" xlink:href="#m3819888c17" y="630"/>
      </g>
     </g>
     <g id="text_2">
      <!-- −0.2 -->
      <g transform="translate(253.020455 647.22)scale(0.14 -0.14)">
       <defs>
        <path d="M 474 0 
L 474 416 
Q 1107 883 1532 1235 
Q 1958 1587 2214 1875 
Q 2470 2163 2579 2422 
Q 2688 2682 2688 2963 
Q 2688 3341 2448 3574 
Q 2208 3808 1792 3808 
Q 1357 3808 1094 3523 
Q 832 3238 787 2765 
L 339 3034 
Q 397 3405 579 3686 
Q 762 3968 1072 4128 
Q 1382 4288 1811 4288 
Q 2138 4288 2397 4192 
Q 2656 4096 2841 3920 
Q 3027 3744 3126 3501 
Q 3226 3258 3226 2963 
Q 3226 2566 3034 2185 
Q 2842 1805 2400 1389 
Q 1958 973 1203 467 
L 1203 461 
Q 1274 467 1398 470 
Q 1523 474 1648 477 
Q 1773 480 1837 480 
L 3315 480 
L 3315 0 
L 474 0 
z
" id="WorkSans-Regular-32" transform="scale(0.015625)"/>
       </defs>
       <use xlink:href="#WorkSans-Regular-2212"/>
       <use x="60.399994" xlink:href="#WorkSans-Regular-30"/>
       <use x="122.599991" xlink:href="#WorkSans-Regular-2e"/>
       <use x="149.199982" xlink:href="#WorkSans-Regular-32"/>
      </g>
     </g>
    </g>
    <g id="xtick_3">
     <g id="line2d_5">
      <path clip-path="url(#pe38dfa3148)" d="M 369 630 
L 369 86.4 
" style="fill:none;stroke:#b0b0b0;stroke-dasharray:2.96,1.28;stroke-dashoffset:0;stroke-width:0.8;"/>
     </g>
     <g id="line2d_6">
      <g>
       <use style="stroke:#000000;stroke-width:0.8;" x="369" xlink:href="#m3819888c17" y="630"/>
      </g>
     </g>
     <g id="text_3">
      <!-- 0.0 -->
      <g transform="translate(358.43 647.22)scale(0.14 -0.14)">
       <use xlink:href="#WorkSans-Regular-30"/>
       <use x="62.199997" xlink:href="#WorkSans-Regular-2e"/>
       <use x="88.799988" xlink:href="#WorkSans-Regular-30"/>
      </g>
     </g>
    </g>
    <g id="xtick_4">
     <g id="line2d_7">
      <path clip-path="url(#pe38dfa3148)" d="M 470.454545 630 
L 470.454545 86.4 
" style="fill:none;stroke:#b0b0b0;stroke-dasharray:2.96,1.28;stroke-dashoffset:0;stroke-width:0.8;"/>
     </g>
     <g id="line2d_8">
      <g>
       <use style="stroke:#000000;stroke-width:0.8;" x="470.454545" xlink:href="#m3819888c17" y="630"/>
      </g>
     </g>
     <g id="text_4">
      <!-- 0.2 -->
      <g transform="translate(460.157983 647.22)scale(0.14 -0.14)">
       <use xlink:href="#WorkSans-Regular-30"/>
       <use x="62.199997" xlink:href="#WorkSans-Regular-2e"/>
       <use x="88.799988" xlink:href="#WorkSans-Regular-32"/>
      </g>
     </g>
    </g>
    <g id="xtick_5">
     <g id="line2d_9">
      <path clip-path="url(#pe38dfa3148)" d="M 571.909091 630 
L 571.909091 86.4 
" style="fill:none;stroke:#b0b0b0;stroke-dasharray:2.96,1.28;stroke-dashoffset:0;stroke-width:0.8;"/>
     </g>
     <g id="line2d_10">
      <g>
       <use style="stroke:#000000;stroke-width:0.8;" x="571.909091" xlink:href="#m3819888c17" y="630"/>
      </g>
     </g>
     <g id="text_5">
      <!-- 0.4 -->
      <g transform="translate(561.416747 647.22)scale(0.14 -0.14)">
       <use xlink:href="#WorkSans-Regular-30"/>
       <use x="62.199997" xlink:href="#WorkSans-Regular-2e"/>
       <use x="88.799988" xlink:href="#WorkSans-Regular-34"/>
      </g>
     </g>
    </g>
    <g id="text_6">
     <!-- Differetial Voltage Input [V] -->
     <g transform="translate(274.608281 664.45)scale(0.14 -0.14)">
      <defs>
       <path d="M 2054 4224 
Q 3046 4224 3612 3677 
Q 4179 3130 4179 2112 
Q 4179 1094 3612 547 
Q 3046 0 2054 0 
L 691 0 
L 691 4224 
L 2054 4224 
z
M 2106 480 
Q 2829 480 3235 912 
Q 3642 1344 3642 2112 
Q 3642 2880 3235 3312 
Q 2829 3744 2106 3744 
L 1203 3744 
L 1203 480 
L 2106 480 
z
" id="WorkSans-Regular-44" transform="scale(0.015625)"/>
       <path d="M 851 3814 
Q 678 3814 572 3920 
Q 467 4026 467 4198 
Q 467 4371 572 4476 
Q 678 4582 851 4582 
Q 1024 4582 1129 4476 
Q 1235 4371 1235 4198 
Q 1235 4026 1129 3920 
Q 1024 3814 851 3814 
z
M 1107 3200 
L 1107 0 
L 595 0 
L 595 3200 
L 1107 3200 
z
" id="WorkSans-Regular-69" transform="scale(0.015625)"/>
       <path d="M 1894 4704 
Q 2061 4704 2208 4665 
Q 2355 4627 2438 4557 
L 2304 4141 
Q 2227 4192 2137 4214 
Q 2048 4237 1939 4237 
Q 1664 4237 1510 4105 
Q 1357 3974 1357 3686 
L 1357 3200 
L 1357 3034 
L 1357 0 
L 845 0 
L 845 3738 
Q 845 3949 909 4128 
Q 973 4307 1104 4435 
Q 1235 4563 1433 4633 
Q 1632 4704 1894 4704 
z
M 2426 3200 
L 2426 2758 
L 205 2758 
L 205 3200 
L 2426 3200 
z
" id="WorkSans-Regular-66" transform="scale(0.015625)"/>
       <path d="M 1933 -64 
Q 1478 -64 1123 134 
Q 768 333 569 707 
Q 371 1082 371 1600 
Q 371 2118 569 2492 
Q 768 2867 1113 3065 
Q 1459 3264 1901 3264 
Q 2349 3264 2665 3072 
Q 2982 2880 3148 2550 
Q 3315 2221 3315 1811 
Q 3315 1702 3308 1612 
Q 3302 1523 3290 1453 
L 704 1453 
L 704 1907 
L 3066 1907 
L 2803 1856 
Q 2803 2317 2550 2566 
Q 2298 2816 1888 2816 
Q 1574 2816 1347 2672 
Q 1120 2528 995 2256 
Q 870 1984 870 1600 
Q 870 1222 998 947 
Q 1126 672 1360 528 
Q 1594 384 1920 384 
Q 2272 384 2493 518 
Q 2714 653 2848 883 
L 3251 646 
Q 3130 429 2941 269 
Q 2752 109 2499 22 
Q 2246 -64 1933 -64 
z
" id="WorkSans-Regular-65" transform="scale(0.015625)"/>
       <path d="M 595 0 
L 595 3200 
L 1011 3200 
L 1082 2675 
Q 1216 2970 1475 3117 
Q 1734 3264 2106 3264 
Q 2189 3264 2288 3251 
Q 2387 3238 2458 3200 
L 2368 2733 
Q 2298 2758 2214 2771 
Q 2131 2784 1978 2784 
Q 1779 2784 1577 2669 
Q 1376 2554 1241 2320 
Q 1107 2086 1107 1728 
L 1107 0 
L 595 0 
z
" id="WorkSans-Regular-72" transform="scale(0.015625)"/>
       <path d="M 1350 4109 
L 1350 883 
Q 1350 646 1484 531 
Q 1619 416 1830 416 
Q 2016 416 2150 480 
Q 2285 544 2394 653 
L 2573 224 
Q 2426 90 2224 13 
Q 2022 -64 1760 -64 
Q 1517 -64 1305 22 
Q 1094 109 969 297 
Q 845 486 838 794 
L 838 3968 
L 1350 4109 
z
M 2515 3200 
L 2515 2758 
L 198 2758 
L 198 3200 
L 2515 3200 
z
" id="WorkSans-Regular-74" transform="scale(0.015625)"/>
       <path d="M 2464 2067 
Q 2464 2426 2272 2621 
Q 2080 2816 1728 2816 
Q 1395 2816 1164 2672 
Q 934 2528 826 2208 
L 410 2464 
Q 538 2822 883 3043 
Q 1229 3264 1741 3264 
Q 2086 3264 2368 3145 
Q 2650 3027 2813 2787 
Q 2976 2547 2976 2170 
L 2976 621 
Q 2976 390 3219 390 
Q 3341 390 3456 422 
L 3430 19 
Q 3302 -45 3098 -45 
Q 2912 -45 2765 25 
Q 2618 96 2534 240 
Q 2451 384 2451 602 
L 2451 666 
L 2579 646 
Q 2502 397 2316 240 
Q 2131 83 1900 9 
Q 1670 -64 1446 -64 
Q 1165 -64 921 32 
Q 678 128 534 323 
Q 390 518 390 806 
Q 390 1165 630 1398 
Q 870 1632 1299 1715 
L 2566 1965 
L 2566 1542 
L 1536 1331 
Q 1222 1267 1068 1152 
Q 915 1037 915 832 
Q 915 634 1072 509 
Q 1229 384 1517 384 
Q 1702 384 1872 432 
Q 2042 480 2176 579 
Q 2310 678 2387 828 
Q 2464 979 2464 1184 
L 2464 2067 
z
" id="WorkSans-Regular-61" transform="scale(0.015625)"/>
       <path d="M 1082 4672 
L 1082 813 
Q 1082 570 1171 477 
Q 1261 384 1459 384 
Q 1587 384 1670 403 
Q 1754 422 1894 474 
L 1811 26 
Q 1709 -19 1587 -41 
Q 1466 -64 1338 -64 
Q 947 -64 758 147 
Q 570 358 570 794 
L 570 4672 
L 1082 4672 
z
" id="WorkSans-Regular-6c" transform="scale(0.015625)"/>
       <path id="WorkSans-Regular-20" transform="scale(0.015625)"/>
       <path d="M 3968 4224 
L 2368 0 
L 1786 0 
L 179 4224 
L 730 4224 
L 1805 1306 
L 2074 467 
L 2342 1299 
L 3418 4224 
L 3968 4224 
z
" id="WorkSans-Regular-56" transform="scale(0.015625)"/>
       <path d="M 1920 3264 
Q 2374 3264 2723 3065 
Q 3072 2867 3270 2492 
Q 3469 2118 3469 1600 
Q 3469 1082 3270 707 
Q 3072 333 2723 134 
Q 2374 -64 1920 -64 
Q 1472 -64 1120 134 
Q 768 333 569 707 
Q 371 1082 371 1600 
Q 371 2118 569 2492 
Q 768 2867 1120 3065 
Q 1472 3264 1920 3264 
z
M 1920 2822 
Q 1594 2822 1363 2675 
Q 1133 2528 1008 2256 
Q 883 1984 883 1600 
Q 883 1222 1008 947 
Q 1133 672 1363 525 
Q 1594 378 1920 378 
Q 2246 378 2476 525 
Q 2707 672 2832 947 
Q 2957 1222 2957 1600 
Q 2957 1984 2832 2256 
Q 2707 2528 2476 2675 
Q 2246 2822 1920 2822 
z
" id="WorkSans-Regular-6f" transform="scale(0.015625)"/>
       <path d="M 3290 3789 
L 3405 3334 
Q 3398 3334 3385 3334 
Q 3373 3334 3360 3334 
Q 3046 3334 2876 3209 
Q 2707 3085 2707 2810 
L 2394 2970 
Q 2394 3219 2509 3404 
Q 2624 3590 2822 3689 
Q 3021 3789 3258 3789 
Q 3264 3789 3273 3789 
Q 3283 3789 3290 3789 
z
M 2317 410 
Q 2771 410 3027 202 
Q 3283 -6 3283 -352 
Q 3283 -666 3075 -896 
Q 2867 -1126 2518 -1251 
Q 2170 -1376 1734 -1376 
Q 979 -1376 604 -1120 
Q 230 -864 230 -506 
Q 230 -250 400 -48 
Q 570 154 973 179 
L 928 83 
Q 710 141 560 278 
Q 410 416 410 678 
Q 410 941 605 1129 
Q 800 1318 1184 1363 
L 1523 1190 
L 1459 1190 
Q 1146 1158 1014 1033 
Q 883 909 883 762 
Q 883 582 1014 496 
Q 1146 410 1382 410 
L 2317 410 
z
M 1728 -947 
Q 2099 -947 2339 -870 
Q 2579 -794 2694 -672 
Q 2810 -550 2810 -410 
Q 2810 -237 2672 -134 
Q 2534 -32 2176 -32 
L 1190 -32 
Q 986 -32 845 -137 
Q 704 -243 704 -429 
Q 704 -666 976 -806 
Q 1248 -947 1728 -947 
z
M 1683 3264 
Q 2067 3264 2364 3126 
Q 2662 2989 2828 2745 
Q 2995 2502 2995 2182 
Q 2995 1869 2828 1622 
Q 2662 1376 2364 1238 
Q 2067 1101 1683 1101 
Q 1050 1101 710 1405 
Q 371 1709 371 2182 
Q 371 2502 540 2745 
Q 710 2989 1004 3126 
Q 1299 3264 1683 3264 
z
M 1683 2848 
Q 1350 2848 1126 2665 
Q 902 2483 902 2182 
Q 902 1888 1126 1702 
Q 1350 1517 1683 1517 
Q 2016 1517 2240 1702 
Q 2464 1888 2464 2182 
Q 2464 2483 2240 2665 
Q 2016 2848 1683 2848 
z
" id="WorkSans-Regular-67" transform="scale(0.015625)"/>
       <path d="M 1203 4224 
L 1203 0 
L 691 0 
L 691 4224 
L 1203 4224 
z
" id="WorkSans-Regular-49" transform="scale(0.015625)"/>
       <path d="M 595 0 
L 595 3200 
L 1043 3200 
L 1088 2483 
L 1005 2554 
Q 1107 2810 1280 2966 
Q 1453 3123 1680 3193 
Q 1907 3264 2150 3264 
Q 2496 3264 2777 3133 
Q 3059 3002 3228 2733 
Q 3398 2464 3398 2048 
L 3398 0 
L 2886 0 
L 2886 1869 
Q 2886 2400 2659 2608 
Q 2432 2816 2099 2816 
Q 1869 2816 1638 2707 
Q 1408 2598 1257 2355 
Q 1107 2112 1107 1702 
L 1107 0 
L 595 0 
z
" id="WorkSans-Regular-6e" transform="scale(0.015625)"/>
       <path d="M 595 -1344 
L 595 3200 
L 1043 3200 
L 1088 2419 
L 1018 2509 
Q 1101 2733 1267 2902 
Q 1434 3072 1670 3168 
Q 1907 3264 2182 3264 
Q 2573 3264 2902 3065 
Q 3232 2867 3430 2496 
Q 3629 2125 3629 1600 
Q 3629 1082 3427 707 
Q 3226 333 2893 134 
Q 2560 -64 2163 -64 
Q 1766 -64 1468 131 
Q 1171 326 1043 627 
L 1107 723 
L 1107 -1344 
L 595 -1344 
z
M 2112 384 
Q 2586 384 2851 717 
Q 3117 1050 3117 1600 
Q 3117 2150 2857 2483 
Q 2598 2816 2131 2816 
Q 1824 2816 1593 2665 
Q 1363 2515 1235 2243 
Q 1107 1971 1107 1600 
Q 1107 1235 1232 960 
Q 1357 685 1584 534 
Q 1811 384 2112 384 
z
" id="WorkSans-Regular-70" transform="scale(0.015625)"/>
       <path d="M 1754 -64 
Q 1446 -64 1174 51 
Q 902 166 732 425 
Q 563 685 563 1101 
L 563 3200 
L 1075 3200 
L 1075 1235 
Q 1075 749 1286 566 
Q 1498 384 1882 384 
Q 2061 384 2233 445 
Q 2406 506 2544 637 
Q 2682 768 2762 973 
Q 2842 1178 2842 1459 
L 2842 3200 
L 3354 3200 
L 3354 0 
L 2906 0 
L 2874 486 
Q 2707 198 2422 67 
Q 2138 -64 1754 -64 
z
" id="WorkSans-Regular-75" transform="scale(0.015625)"/>
       <path d="M 2016 4224 
L 1037 4224 
L 1037 -627 
L 2016 -627 
L 2016 -1075 
L 557 -1075 
L 557 4672 
L 2016 4672 
L 2016 4224 
z
" id="WorkSans-Regular-5b" transform="scale(0.015625)"/>
       <path d="M 211 -627 
L 1191 -627 
L 1191 4224 
L 211 4224 
L 211 4672 
L 1671 4672 
L 1671 -1075 
L 211 -1075 
L 211 -627 
z
" id="WorkSans-Regular-5d" transform="scale(0.015625)"/>
      </defs>
      <use xlink:href="#WorkSans-Regular-44"/>
      <use x="72.099991" xlink:href="#WorkSans-Regular-69"/>
      <use x="98.699982" xlink:href="#WorkSans-Regular-66"/>
      <use x="137.999969" xlink:href="#WorkSans-Regular-66"/>
      <use x="177.299957" xlink:href="#WorkSans-Regular-65"/>
      <use x="234.999954" xlink:href="#WorkSans-Regular-72"/>
      <use x="275.799942" xlink:href="#WorkSans-Regular-65"/>
      <use x="333.499939" xlink:href="#WorkSans-Regular-74"/>
      <use x="375.399933" xlink:href="#WorkSans-Regular-69"/>
      <use x="401.999924" xlink:href="#WorkSans-Regular-61"/>
      <use x="458.599915" xlink:href="#WorkSans-Regular-6c"/>
      <use x="489.199905" xlink:href="#WorkSans-Regular-20"/>
      <use x="523.299896" xlink:href="#WorkSans-Regular-56"/>
      <use x="588.099884" xlink:href="#WorkSans-Regular-6f"/>
      <use x="648.099869" xlink:href="#WorkSans-Regular-6c"/>
      <use x="678.69986" xlink:href="#WorkSans-Regular-74"/>
      <use x="720.599854" xlink:href="#WorkSans-Regular-61"/>
      <use x="777.199844" xlink:href="#WorkSans-Regular-67"/>
      <use x="830.399841" xlink:href="#WorkSans-Regular-65"/>
      <use x="888.099838" xlink:href="#WorkSans-Regular-20"/>
      <use x="922.199829" xlink:href="#WorkSans-Regular-49"/>
      <use x="951.79982" xlink:href="#WorkSans-Regular-6e"/>
      <use x="1013.699814" xlink:href="#WorkSans-Regular-70"/>
      <use x="1076.399811" xlink:href="#WorkSans-Regular-75"/>
      <use x="1138.099808" xlink:href="#WorkSans-Regular-74"/>
      <use x="1179.999802" xlink:href="#WorkSans-Regular-20"/>
      <use x="1214.099792" xlink:href="#WorkSans-Regular-5b"/>
      <use x="1248.89978" xlink:href="#WorkSans-Regular-56"/>
      <use x="1313.699768" xlink:href="#WorkSans-Regular-5d"/>
     </g>
    </g>
   </g>
   <g id="matplotlib.axis_2">
    <g id="ytick_1">
     <g id="line2d_11">
      <path clip-path="url(#pe38dfa3148)" d="M 90 602.184398 
L 648 602.184398 
" style="fill:none;stroke:#b0b0b0;stroke-dasharray:2.96,1.28;stroke-dashoffset:0;stroke-width:0.8;"/>
     </g>
     <g id="line2d_12">
      <defs>
       <path d="M 0 0 
L -3.5 0 
" id="m99ea188053" style="stroke:#000000;stroke-width:0.8;"/>
      </defs>
      <g>
       <use style="stroke:#000000;stroke-width:0.8;" x="90" xlink:href="#m99ea188053" y="602.184398"/>
      </g>
     </g>
     <g id="text_7">
      <!-- −30 -->
      <g transform="translate(57.673125 607.294398)scale(0.14 -0.14)">
       <defs>
        <path d="M 1856 -64 
Q 1293 -64 861 201 
Q 429 467 275 934 
L 787 1197 
Q 864 960 998 784 
Q 1133 608 1353 512 
Q 1574 416 1907 416 
Q 2189 416 2381 518 
Q 2573 621 2675 797 
Q 2778 973 2778 1203 
Q 2778 1434 2691 1587 
Q 2605 1741 2419 1814 
Q 2234 1888 1933 1888 
Q 1862 1888 1779 1885 
Q 1696 1882 1606 1869 
L 1606 2381 
Q 1664 2374 1718 2374 
Q 1773 2374 1818 2374 
Q 2285 2374 2483 2556 
Q 2682 2739 2682 3130 
Q 2682 3462 2477 3635 
Q 2272 3808 1894 3808 
Q 1491 3808 1280 3632 
Q 1069 3456 947 3155 
L 461 3386 
Q 563 3654 768 3859 
Q 973 4064 1264 4179 
Q 1555 4294 1907 4294 
Q 2349 4294 2637 4144 
Q 2925 3994 3069 3744 
Q 3213 3494 3213 3194 
Q 3213 2963 3149 2780 
Q 3085 2598 2973 2464 
Q 2861 2330 2720 2250 
Q 2579 2170 2419 2144 
L 2419 2131 
Q 2630 2125 2793 2048 
Q 2957 1971 3072 1843 
Q 3187 1715 3248 1552 
Q 3309 1389 3309 1210 
Q 3309 838 3126 550 
Q 2944 262 2617 99 
Q 2291 -64 1856 -64 
z
" id="WorkSans-Regular-33" transform="scale(0.015625)"/>
       </defs>
       <use xlink:href="#WorkSans-Regular-2212"/>
       <use x="60.399994" xlink:href="#WorkSans-Regular-33"/>
       <use x="118.699982" xlink:href="#WorkSans-Regular-30"/>
      </g>
     </g>
    </g>
    <g id="ytick_2">
     <g id="line2d_13">
      <path clip-path="url(#pe38dfa3148)" d="M 90 526.726011 
L 648 526.726011 
" style="fill:none;stroke:#b0b0b0;stroke-dasharray:2.96,1.28;stroke-dashoffset:0;stroke-width:0.8;"/>
     </g>
     <g id="line2d_14">
      <g>
       <use style="stroke:#000000;stroke-width:0.8;" x="90" xlink:href="#m99ea188053" y="526.726011"/>
      </g>
     </g>
     <g id="text_8">
      <!-- −20 -->
      <g transform="translate(57.673125 531.836011)scale(0.14 -0.14)">
       <use xlink:href="#WorkSans-Regular-2212"/>
       <use x="60.399994" xlink:href="#WorkSans-Regular-32"/>
       <use x="118.699982" xlink:href="#WorkSans-Regular-30"/>
      </g>
     </g>
    </g>
    <g id="ytick_3">
     <g id="line2d_15">
      <path clip-path="url(#pe38dfa3148)" d="M 90 451.267625 
L 648 451.267625 
" style="fill:none;stroke:#b0b0b0;stroke-dasharray:2.96,1.28;stroke-dashoffset:0;stroke-width:0.8;"/>
     </g>
     <g id="line2d_16">
      <g>
       <use style="stroke:#000000;stroke-width:0.8;" x="90" xlink:href="#m99ea188053" y="451.267625"/>
      </g>
     </g>
     <g id="text_9">
      <!-- −10 -->
      <g transform="translate(60.374687 456.377625)scale(0.14 -0.14)">
       <defs>
        <path d="M 1331 0 
L 1331 3098 
Q 1331 3206 1334 3331 
Q 1338 3456 1344 3590 
Q 1126 3379 838 3222 
Q 550 3066 250 2995 
L 115 3462 
Q 230 3475 406 3548 
Q 582 3622 777 3734 
Q 973 3846 1139 3974 
Q 1306 4102 1395 4224 
L 1843 4224 
L 1843 0 
L 1331 0 
z
" id="WorkSans-Regular-31" transform="scale(0.015625)"/>
       </defs>
       <use xlink:href="#WorkSans-Regular-2212"/>
       <use x="60.399994" xlink:href="#WorkSans-Regular-31"/>
       <use x="99.399979" xlink:href="#WorkSans-Regular-30"/>
      </g>
     </g>
    </g>
    <g id="ytick_4">
     <g id="line2d_17">
      <path clip-path="url(#pe38dfa3148)" d="M 90 375.809238 
L 648 375.809238 
" style="fill:none;stroke:#b0b0b0;stroke-dasharray:2.96,1.28;stroke-dashoffset:0;stroke-width:0.8;"/>
     </g>
     <g id="line2d_18">
      <g>
       <use style="stroke:#000000;stroke-width:0.8;" x="90" xlink:href="#m99ea188053" y="375.809238"/>
      </g>
     </g>
     <g id="text_10">
      <!-- 0 -->
      <g transform="translate(74.291562 380.919238)scale(0.14 -0.14)">
       <use xlink:href="#WorkSans-Regular-30"/>
      </g>
     </g>
    </g>
    <g id="ytick_5">
     <g id="line2d_19">
      <path clip-path="url(#pe38dfa3148)" d="M 90 300.350852 
L 648 300.350852 
" style="fill:none;stroke:#b0b0b0;stroke-dasharray:2.96,1.28;stroke-dashoffset:0;stroke-width:0.8;"/>
     </g>
     <g id="line2d_20">
      <g>
       <use style="stroke:#000000;stroke-width:0.8;" x="90" xlink:href="#m99ea188053" y="300.350852"/>
      </g>
     </g>
     <g id="text_11">
      <!-- 10 -->
      <g transform="translate(68.831563 305.460852)scale(0.14 -0.14)">
       <use xlink:href="#WorkSans-Regular-31"/>
       <use x="38.999985" xlink:href="#WorkSans-Regular-30"/>
      </g>
     </g>
    </g>
    <g id="ytick_6">
     <g id="line2d_21">
      <path clip-path="url(#pe38dfa3148)" d="M 90 224.892465 
L 648 224.892465 
" style="fill:none;stroke:#b0b0b0;stroke-dasharray:2.96,1.28;stroke-dashoffset:0;stroke-width:0.8;"/>
     </g>
     <g id="line2d_22">
      <g>
       <use style="stroke:#000000;stroke-width:0.8;" x="90" xlink:href="#m99ea188053" y="224.892465"/>
      </g>
     </g>
     <g id="text_12">
      <!-- 20 -->
      <g transform="translate(66.13 230.002465)scale(0.14 -0.14)">
       <use xlink:href="#WorkSans-Regular-32"/>
       <use x="58.299988" xlink:href="#WorkSans-Regular-30"/>
      </g>
     </g>
    </g>
    <g id="ytick_7">
     <g id="line2d_23">
      <path clip-path="url(#pe38dfa3148)" d="M 90 149.434079 
L 648 149.434079 
" style="fill:none;stroke:#b0b0b0;stroke-dasharray:2.96,1.28;stroke-dashoffset:0;stroke-width:0.8;"/>
     </g>
     <g id="line2d_24">
      <g>
       <use style="stroke:#000000;stroke-width:0.8;" x="90" xlink:href="#m99ea188053" y="149.434079"/>
      </g>
     </g>
     <g id="text_13">
      <!-- 30 -->
      <g transform="translate(66.13 154.544079)scale(0.14 -0.14)">
       <use xlink:href="#WorkSans-Regular-33"/>
       <use x="58.299988" xlink:href="#WorkSans-Regular-30"/>
      </g>
     </g>
    </g>
    <g id="text_14">
     <!-- Current [nA] -->
     <g transform="translate(50.733125 400.55)rotate(-90)scale(0.14 -0.14)">
      <defs>
       <path d="M 4096 1082 
Q 3962 723 3712 464 
Q 3462 205 3126 70 
Q 2790 -64 2394 -64 
Q 1792 -64 1353 201 
Q 915 467 675 953 
Q 435 1440 435 2112 
Q 435 2784 675 3270 
Q 915 3757 1353 4022 
Q 1792 4288 2381 4288 
Q 2790 4288 3110 4176 
Q 3430 4064 3657 3843 
Q 3885 3622 4019 3302 
L 3514 3066 
Q 3373 3430 3107 3619 
Q 2842 3808 2419 3808 
Q 1990 3808 1664 3606 
Q 1338 3405 1155 3027 
Q 973 2650 973 2112 
Q 973 1581 1145 1200 
Q 1318 819 1638 617 
Q 1958 416 2394 416 
Q 2816 416 3129 630 
Q 3443 845 3584 1274 
L 4096 1082 
z
" id="WorkSans-Regular-43" transform="scale(0.015625)"/>
       <path d="M 166 0 
L 1811 4224 
L 2419 4224 
L 4058 0 
L 3514 0 
L 2310 3149 
L 2112 3738 
L 2099 3738 
L 1914 3168 
L 704 0 
L 166 0 
z
M 973 1171 
L 973 1651 
L 3232 1651 
L 3232 1171 
L 973 1171 
z
" id="WorkSans-Regular-41" transform="scale(0.015625)"/>
      </defs>
      <use xlink:href="#WorkSans-Regular-43"/>
      <use x="68.599991" xlink:href="#WorkSans-Regular-75"/>
      <use x="130.299988" xlink:href="#WorkSans-Regular-72"/>
      <use x="171.099976" xlink:href="#WorkSans-Regular-72"/>
      <use x="211.899963" xlink:href="#WorkSans-Regular-65"/>
      <use x="269.59996" xlink:href="#WorkSans-Regular-6e"/>
      <use x="331.499954" xlink:href="#WorkSans-Regular-74"/>
      <use x="373.399948" xlink:href="#WorkSans-Regular-20"/>
      <use x="407.499939" xlink:href="#WorkSans-Regular-5b"/>
      <use x="442.299927" xlink:href="#WorkSans-Regular-6e"/>
      <use x="504.199921" xlink:href="#WorkSans-Regular-41"/>
      <use x="570.199905" xlink:href="#WorkSans-Regular-5d"/>
     </g>
    </g>
   </g>
   <g id="line2d_25">
    <path clip-path="url(#pe38dfa3148)" d="M 115.363636 605.290909 
L 186.635455 604.507647 
L 210.984545 604.041512 
L 225.695455 603.549756 
L 236.601818 602.970331 
L 245.225455 602.293826 
L 252.327273 601.519033 
L 258.414545 600.636949 
L 263.740909 599.647174 
L 268.56 598.528784 
L 272.871818 597.30662 
L 276.93 595.925619 
L 280.734545 594.389947 
L 284.285455 592.710641 
L 287.582727 590.906043 
L 290.626364 589.001818 
L 293.67 586.839757 
L 296.713636 584.389188 
L 299.503636 581.861156 
L 302.293636 579.03569 
L 305.083636 575.884078 
L 307.873636 572.376315 
L 310.663636 568.481393 
L 313.453636 564.167683 
L 316.243636 559.403409 
L 319.033636 554.15724 
L 321.823636 548.398983 
L 324.613636 542.100391 
L 327.403636 535.236069 
L 330.193636 527.784467 
L 332.983636 519.728939 
L 336.027273 510.239978 
L 339.070909 500.015579 
L 342.368182 488.118153 
L 345.665455 475.393281 
L 349.216364 460.817809 
L 353.274545 443.16162 
L 357.84 422.238066 
L 364.180909 391.980772 
L 367.224545 377.709205 
L 367.731818 376.002312 
L 367.985455 375.820331 
L 368.492727 375.796104 
L 368.746364 375.663853 
L 369 375.130334 
L 369.760909 372.198815 
L 371.79 362.882461 
L 383.457273 308.329604 
L 387.769091 289.531547 
L 391.573636 273.903849 
L 395.124545 260.233839 
L 398.421818 248.387707 
L 401.719091 237.387113 
L 404.762727 227.992364 
L 407.806364 219.322946 
L 410.596364 212.00131 
L 413.386364 205.260403 
L 416.176364 199.078406 
L 418.966364 193.429765 
L 421.756364 188.286174 
L 424.546364 183.617473 
L 427.336364 179.392441 
L 430.126364 175.579484 
L 432.916364 172.147205 
L 435.706364 169.064873 
L 438.496364 166.302794 
L 441.286364 163.832583 
L 444.33 161.439151 
L 447.373636 159.328467 
L 450.670909 157.325974 
L 453.968182 155.584728 
L 457.519091 153.965278 
L 461.323636 152.485147 
L 465.381818 151.154776 
L 469.693636 149.977964 
L 474.512727 148.901502 
L 479.839091 147.949106 
L 485.926364 147.100411 
L 492.774545 146.377676 
L 500.890909 145.75171 
L 510.782727 145.21931 
L 523.718182 144.759694 
L 541.98 144.353499 
L 572.162727 143.933397 
L 622.636364 143.413496 
L 622.636364 143.413496 
" style="fill:none;stroke:#4477aa;stroke-linecap:square;stroke-width:3;"/>
   </g>
   <g id="line2d_26">
    <path clip-path="url(#pe38dfa3148)" d="M 115.363636 118.894144 
L 184.352727 119.721586 
L 208.701818 120.208443 
L 223.412727 120.710357 
L 234.319091 121.295385 
L 242.942727 121.974331 
L 250.044545 122.749387 
L 256.131818 123.63027 
L 261.458182 124.617931 
L 266.277273 125.733725 
L 270.589091 126.953313 
L 274.647273 128.332101 
L 278.451818 129.866449 
L 282.002727 131.545865 
L 285.3 133.352517 
L 288.343636 135.261155 
L 291.387273 137.431059 
L 294.177273 139.676882 
L 296.967273 142.195697 
L 299.757273 145.016078 
L 302.547273 148.168441 
L 305.337273 151.684901 
L 307.873636 155.225869 
L 310.41 159.12156 
L 312.946364 163.398591 
L 315.482727 168.083806 
L 318.019091 173.203902 
L 320.809091 179.36941 
L 323.599091 186.125824 
L 326.389091 193.503725 
L 329.179091 201.530099 
L 331.969091 210.227219 
L 335.012727 220.499062 
L 338.056364 231.600218 
L 341.1 243.530688 
L 344.397273 257.37556 
L 347.948182 273.31457 
L 351.752727 291.495011 
L 355.810909 312.004737 
L 360.63 337.579499 
L 367.731818 375.478764 
L 367.985455 375.670438 
L 368.492727 375.670719 
L 368.746364 375.540498 
L 369 374.894182 
L 369.760909 371.356567 
L 372.297273 357.487626 
L 379.906364 315.758488 
L 384.471818 292.002332 
L 388.53 272.05146 
L 392.080909 255.637228 
L 395.631818 240.28366 
L 398.929091 227.023441 
L 401.972727 215.654602 
L 405.016364 205.125057 
L 408.06 195.425105 
L 410.85 187.245229 
L 413.64 179.723717 
L 416.43 172.833752 
L 419.22 166.544751 
L 422.01 160.823417 
L 424.8 155.634703 
L 427.59 150.942656 
L 430.38 146.711141 
L 433.17 142.904445 
L 435.96 139.487771 
L 438.75 136.427612 
L 441.54 133.692041 
L 444.33 131.250908 
L 447.373636 128.890522 
L 450.417273 126.812964 
L 453.714545 124.845331 
L 457.011818 123.13706 
L 460.562727 121.55041 
L 464.367273 120.101917 
L 468.425455 118.801137 
L 472.737273 117.651148 
L 477.556364 116.599382 
L 482.882727 115.668451 
L 488.97 114.83785 
L 496.071818 114.106205 
L 504.441818 113.479538 
L 514.840909 112.938844 
L 528.283636 112.47682 
L 547.56 112.05475 
L 580.786364 111.581293 
L 622.636364 111.109091 
L 622.636364 111.109091 
" style="fill:none;stroke:#ee6677;stroke-linecap:square;stroke-width:3;"/>
   </g>
   <g id="line2d_27">
    <path clip-path="url(#pe38dfa3148)" d="M 115.363636 146.327567 
L 186.635455 147.11083 
L 210.984545 147.576965 
L 225.695455 148.068721 
L 236.601818 148.648146 
L 245.225455 149.324651 
L 252.327273 150.099444 
L 258.414545 150.981528 
L 263.740909 151.971303 
L 268.56 153.089692 
L 272.871818 154.311857 
L 276.93 155.692858 
L 280.734545 157.228529 
L 284.285455 158.907835 
L 287.582727 160.712433 
L 290.626364 162.616659 
L 293.67 164.77872 
L 296.713636 167.229288 
L 299.503636 169.757321 
L 302.293636 172.582786 
L 305.083636 175.734399 
L 307.873636 179.242162 
L 310.663636 183.137083 
L 313.453636 187.450794 
L 316.243636 192.215067 
L 319.033636 197.461236 
L 321.823636 203.219493 
L 324.613636 209.518085 
L 327.403636 216.382407 
L 330.193636 223.834009 
L 332.983636 231.889538 
L 336.027273 241.378499 
L 339.070909 251.602897 
L 342.368182 263.500324 
L 345.665455 276.225196 
L 349.216364 290.800668 
L 353.274545 308.456857 
L 357.84 329.38041 
L 364.180909 359.637705 
L 367.224545 373.909271 
L 367.731818 375.616164 
L 367.985455 375.798146 
L 368.492727 375.796104 
L 368.746364 375.663853 
L 369 375.130334 
L 369.760909 372.198815 
L 371.79 362.882461 
L 383.457273 308.329604 
L 387.769091 289.531547 
L 391.573636 273.903849 
L 395.124545 260.233839 
L 398.421818 248.387707 
L 401.719091 237.387113 
L 404.762727 227.992364 
L 407.806364 219.322946 
L 410.596364 212.00131 
L 413.386364 205.260403 
L 416.176364 199.078406 
L 418.966364 193.429765 
L 421.756364 188.286174 
L 424.546364 183.617473 
L 427.336364 179.392441 
L 430.126364 175.579484 
L 432.916364 172.147205 
L 435.706364 169.064873 
L 438.496364 166.302794 
L 441.286364 163.832583 
L 444.33 161.439151 
L 447.373636 159.328467 
L 450.670909 157.325974 
L 453.968182 155.584728 
L 457.519091 153.965278 
L 461.323636 152.485147 
L 465.381818 151.154776 
L 469.693636 149.977964 
L 474.512727 148.901502 
L 479.839091 147.949106 
L 485.926364 147.100411 
L 492.774545 146.377676 
L 500.890909 145.75171 
L 510.782727 145.21931 
L 523.718182 144.759694 
L 541.98 144.353499 
L 572.162727 143.933397 
L 622.636364 143.413496 
L 622.636364 143.413496 
" style="fill:none;stroke:#228833;stroke-dasharray:11.1,4.8;stroke-dashoffset:0;stroke-width:3;"/>
   </g>
   <g id="patch_3">
    <path d="M 90 630 
L 90 86.4 
" style="fill:none;stroke:#000000;stroke-linecap:square;stroke-linejoin:miter;stroke-width:0.8;"/>
   </g>
   <g id="patch_4">
    <path d="M 648 630 
L 648 86.4 
" style="fill:none;stroke:#000000;stroke-linecap:square;stroke-linejoin:miter;stroke-width:0.8;"/>
   </g>
   <g id="patch_5">
    <path d="M 90 630 
L 648 630 
" style="fill:none;stroke:#000000;stroke-linecap:square;stroke-linejoin:miter;stroke-width:0.8;"/>
   </g>
   <g id="patch_6">
    <path d="M 90 86.4 
L 648 86.4 
" style="fill:none;stroke:#000000;stroke-linecap:square;stroke-linejoin:miter;stroke-width:0.8;"/>
   </g>
   <g id="patch_7">
    <path clip-path="url(#pe38dfa3148)" d="M 366.463636 376.752468 
L 370.268182 376.752468 
L 370.268182 374.866008 
L 366.463636 374.866008 
z
" style="fill:none;opacity:0.5;stroke:#000000;stroke-linejoin:miter;"/>
   </g>
   <g id="patch_8">
    <path d="M 452.7 466.92 
Q 409.581818 421.836234 366.463636 376.752468 
" style="fill:none;opacity:0.5;stroke:#000000;stroke-linecap:round;"/>
   </g>
   <g id="patch_9">
    <path d="M 452.7 303.84 
Q 409.581818 339.353004 366.463636 374.866008 
" style="fill:none;opacity:0.5;stroke:#000000;stroke-linecap:round;"/>
   </g>
   <g id="axes_2">
    <g id="patch_10">
     <path d="M 452.7 466.92 
L 620.1 466.92 
L 620.1 303.84 
L 452.7 303.84 
z
" style="fill:#edead6;"/>
    </g>
    <g id="matplotlib.axis_3">
     <g id="xtick_6">
      <g id="line2d_28">
       <path clip-path="url(#p25a5931ad9)" d="M 452.7 466.92 
L 452.7 303.84 
" style="fill:none;stroke:#b0b0b0;stroke-dasharray:2.96,1.28;stroke-dashoffset:0;stroke-width:0.8;"/>
      </g>
      <g id="line2d_29">
       <g>
        <use style="stroke:#000000;stroke-width:0.8;" x="452.7" xlink:href="#m3819888c17" y="466.92"/>
       </g>
      </g>
      <g id="text_15">
       <!-- −0.0050 -->
       <g transform="translate(425.118906 484.14)scale(0.14 -0.14)">
        <defs>
         <path d="M 1837 -64 
Q 1274 -64 931 192 
Q 589 448 403 902 
L 902 1165 
Q 1005 832 1219 624 
Q 1434 416 1850 416 
Q 2144 416 2352 525 
Q 2560 634 2675 835 
Q 2790 1037 2790 1318 
Q 2790 1619 2684 1820 
Q 2579 2022 2380 2124 
Q 2182 2227 1894 2227 
Q 1690 2227 1514 2185 
Q 1338 2144 1197 2054 
Q 1056 1965 954 1818 
L 506 1901 
L 755 4224 
L 3130 4224 
L 3130 3744 
L 1190 3744 
L 1024 2413 
L 1011 2355 
L 1024 2355 
Q 1178 2515 1418 2611 
Q 1658 2707 1990 2707 
Q 2394 2707 2691 2537 
Q 2989 2368 3155 2061 
Q 3322 1754 3322 1344 
Q 3322 1018 3213 755 
Q 3104 493 2905 310 
Q 2707 128 2435 32 
Q 2163 -64 1837 -64 
z
" id="WorkSans-Regular-35" transform="scale(0.015625)"/>
        </defs>
        <use xlink:href="#WorkSans-Regular-2212"/>
        <use x="60.399994" xlink:href="#WorkSans-Regular-30"/>
        <use x="122.599991" xlink:href="#WorkSans-Regular-2e"/>
        <use x="149.199982" xlink:href="#WorkSans-Regular-30"/>
        <use x="211.399979" xlink:href="#WorkSans-Regular-30"/>
        <use x="273.599976" xlink:href="#WorkSans-Regular-35"/>
        <use x="331.799973" xlink:href="#WorkSans-Regular-30"/>
       </g>
      </g>
     </g>
     <g id="xtick_7">
      <g id="line2d_30">
       <path clip-path="url(#p25a5931ad9)" d="M 508.5 466.92 
L 508.5 303.84 
" style="fill:none;stroke:#b0b0b0;stroke-dasharray:2.96,1.28;stroke-dashoffset:0;stroke-width:0.8;"/>
      </g>
      <g id="line2d_31">
       <g>
        <use style="stroke:#000000;stroke-width:0.8;" x="508.5" xlink:href="#m3819888c17" y="466.92"/>
       </g>
      </g>
      <g id="text_16">
       <!-- −0.0025 -->
       <g transform="translate(481.192344 484.14)scale(0.14 -0.14)">
        <use xlink:href="#WorkSans-Regular-2212"/>
        <use x="60.399994" xlink:href="#WorkSans-Regular-30"/>
        <use x="122.599991" xlink:href="#WorkSans-Regular-2e"/>
        <use x="149.199982" xlink:href="#WorkSans-Regular-30"/>
        <use x="211.399979" xlink:href="#WorkSans-Regular-30"/>
        <use x="273.599976" xlink:href="#WorkSans-Regular-32"/>
        <use x="331.899963" xlink:href="#WorkSans-Regular-35"/>
       </g>
      </g>
     </g>
     <g id="xtick_8">
      <g id="line2d_32">
       <path clip-path="url(#p25a5931ad9)" d="M 564.3 466.92 
L 564.3 303.84 
" style="fill:none;stroke:#b0b0b0;stroke-dasharray:2.96,1.28;stroke-dashoffset:0;stroke-width:0.8;"/>
      </g>
      <g id="line2d_33">
       <g>
        <use style="stroke:#000000;stroke-width:0.8;" x="564.3" xlink:href="#m3819888c17" y="466.92"/>
       </g>
      </g>
      <g id="text_17">
       <!-- 0.0000 -->
       <g transform="translate(540.667344 484.14)scale(0.14 -0.14)">
        <use xlink:href="#WorkSans-Regular-30"/>
        <use x="62.199997" xlink:href="#WorkSans-Regular-2e"/>
        <use x="88.799988" xlink:href="#WorkSans-Regular-30"/>
        <use x="150.999985" xlink:href="#WorkSans-Regular-30"/>
        <use x="213.199982" xlink:href="#WorkSans-Regular-30"/>
        <use x="275.399979" xlink:href="#WorkSans-Regular-30"/>
       </g>
      </g>
     </g>
     <g id="xtick_9">
      <g id="line2d_34">
       <path clip-path="url(#p25a5931ad9)" d="M 620.1 466.92 
L 620.1 303.84 
" style="fill:none;stroke:#b0b0b0;stroke-dasharray:2.96,1.28;stroke-dashoffset:0;stroke-width:0.8;"/>
      </g>
      <g id="line2d_35">
       <g>
        <use style="stroke:#000000;stroke-width:0.8;" x="620.1" xlink:href="#m3819888c17" y="466.92"/>
       </g>
      </g>
      <g id="text_18">
       <!-- 0.0025 -->
       <g transform="translate(597.020781 484.14)scale(0.14 -0.14)">
        <use xlink:href="#WorkSans-Regular-30"/>
        <use x="62.199997" xlink:href="#WorkSans-Regular-2e"/>
        <use x="88.799988" xlink:href="#WorkSans-Regular-30"/>
        <use x="150.999985" xlink:href="#WorkSans-Regular-30"/>
        <use x="213.199982" xlink:href="#WorkSans-Regular-32"/>
        <use x="271.499969" xlink:href="#WorkSans-Regular-35"/>
       </g>
      </g>
     </g>
    </g>
    <g id="matplotlib.axis_4">
     <g id="ytick_8">
      <g id="line2d_36">
       <path clip-path="url(#p25a5931ad9)" d="M 452.7 450.612 
L 620.1 450.612 
" style="fill:none;stroke:#b0b0b0;stroke-dasharray:2.96,1.28;stroke-dashoffset:0;stroke-width:0.8;"/>
      </g>
      <g id="line2d_37">
       <g>
        <use style="stroke:#000000;stroke-width:0.8;" x="452.7" xlink:href="#m99ea188053" y="450.612"/>
       </g>
      </g>
      <g id="text_19">
       <!-- −0.10 -->
       <g transform="translate(410.643125 455.722)scale(0.14 -0.14)">
        <use xlink:href="#WorkSans-Regular-2212"/>
        <use x="60.399994" xlink:href="#WorkSans-Regular-30"/>
        <use x="122.599991" xlink:href="#WorkSans-Regular-2e"/>
        <use x="149.199982" xlink:href="#WorkSans-Regular-31"/>
        <use x="188.199966" xlink:href="#WorkSans-Regular-30"/>
       </g>
      </g>
     </g>
     <g id="ytick_9">
      <g id="line2d_38">
       <path clip-path="url(#p25a5931ad9)" d="M 452.7 417.996 
L 620.1 417.996 
" style="fill:none;stroke:#b0b0b0;stroke-dasharray:2.96,1.28;stroke-dashoffset:0;stroke-width:0.8;"/>
      </g>
      <g id="line2d_39">
       <g>
        <use style="stroke:#000000;stroke-width:0.8;" x="452.7" xlink:href="#m99ea188053" y="417.996"/>
       </g>
      </g>
      <g id="text_20">
       <!-- −0.05 -->
       <g transform="translate(407.954688 423.106)scale(0.14 -0.14)">
        <use xlink:href="#WorkSans-Regular-2212"/>
        <use x="60.399994" xlink:href="#WorkSans-Regular-30"/>
        <use x="122.599991" xlink:href="#WorkSans-Regular-2e"/>
        <use x="149.199982" xlink:href="#WorkSans-Regular-30"/>
        <use x="211.399979" xlink:href="#WorkSans-Regular-35"/>
       </g>
      </g>
     </g>
     <g id="ytick_10">
      <g id="line2d_40">
       <path clip-path="url(#p25a5931ad9)" d="M 452.7 385.38 
L 620.1 385.38 
" style="fill:none;stroke:#b0b0b0;stroke-dasharray:2.96,1.28;stroke-dashoffset:0;stroke-width:0.8;"/>
      </g>
      <g id="line2d_41">
       <g>
        <use style="stroke:#000000;stroke-width:0.8;" x="452.7" xlink:href="#m99ea188053" y="385.38"/>
       </g>
      </g>
      <g id="text_21">
       <!-- 0.00 -->
       <g transform="translate(415.851563 390.49)scale(0.14 -0.14)">
        <use xlink:href="#WorkSans-Regular-30"/>
        <use x="62.199997" xlink:href="#WorkSans-Regular-2e"/>
        <use x="88.799988" xlink:href="#WorkSans-Regular-30"/>
        <use x="150.999985" xlink:href="#WorkSans-Regular-30"/>
       </g>
      </g>
     </g>
     <g id="ytick_11">
      <g id="line2d_42">
       <path clip-path="url(#p25a5931ad9)" d="M 452.7 352.764 
L 620.1 352.764 
" style="fill:none;stroke:#b0b0b0;stroke-dasharray:2.96,1.28;stroke-dashoffset:0;stroke-width:0.8;"/>
      </g>
      <g id="line2d_43">
       <g>
        <use style="stroke:#000000;stroke-width:0.8;" x="452.7" xlink:href="#m99ea188053" y="352.764"/>
       </g>
      </g>
      <g id="text_22">
       <!-- 0.05 -->
       <g transform="translate(416.411563 357.874)scale(0.14 -0.14)">
        <use xlink:href="#WorkSans-Regular-30"/>
        <use x="62.199997" xlink:href="#WorkSans-Regular-2e"/>
        <use x="88.799988" xlink:href="#WorkSans-Regular-30"/>
        <use x="150.999985" xlink:href="#WorkSans-Regular-35"/>
       </g>
      </g>
     </g>
     <g id="ytick_12">
      <g id="line2d_44">
       <path clip-path="url(#p25a5931ad9)" d="M 452.7 320.148 
L 620.1 320.148 
" style="fill:none;stroke:#b0b0b0;stroke-dasharray:2.96,1.28;stroke-dashoffset:0;stroke-width:0.8;"/>
      </g>
      <g id="line2d_45">
       <g>
        <use style="stroke:#000000;stroke-width:0.8;" x="452.7" xlink:href="#m99ea188053" y="320.148"/>
       </g>
      </g>
      <g id="text_23">
       <!-- 0.10 -->
       <g transform="translate(419.1 325.258)scale(0.14 -0.14)">
        <use xlink:href="#WorkSans-Regular-30"/>
        <use x="62.199997" xlink:href="#WorkSans-Regular-2e"/>
        <use x="88.799988" xlink:href="#WorkSans-Regular-31"/>
        <use x="127.799973" xlink:href="#WorkSans-Regular-30"/>
       </g>
      </g>
     </g>
    </g>
    <g id="line2d_46">
     <path clip-path="url(#p25a5931ad9)" d="M 466.354197 721 
L 475.02 644.368114 
L 486.18 549.627666 
L 497.34 463.682927 
L 508.5 402.070801 
L 519.66 386.338908 
L 530.82 385.357026 
L 541.98 384.244562 
L 553.14 372.811811 
L 564.3 326.690323 
L 575.46 252.493695 
L 586.62 165.888094 
L 597.78 73.267408 
L 606.397761 -1 
" style="fill:none;stroke:#4477aa;stroke-linecap:square;stroke-width:2;"/>
    </g>
    <g id="line2d_47">
     <path clip-path="url(#p25a5931ad9)" d="M 467.804377 -1 
L 475.02 73.217658 
L 486.18 183.773596 
L 497.34 284.48964 
L 508.5 356.811251 
L 519.66 373.381071 
L 530.82 373.879464 
L 541.98 373.405298 
L 553.14 362.148015 
L 564.3 306.275511 
L 575.46 216.212064 
L 586.62 111.700361 
L 597.78 0.457048 
L 597.921324 -1 
" style="fill:none;stroke:#ee6677;stroke-linecap:square;stroke-width:2;"/>
    </g>
    <g id="line2d_48">
     <path clip-path="url(#p25a5931ad9)" d="M 460.685272 -1 
L 463.86 27.703758 
L 475.02 126.391886 
L 486.18 221.132334 
L 497.34 307.077073 
L 508.5 368.689199 
L 519.66 384.421092 
L 530.82 385.357026 
L 541.98 384.244562 
L 553.14 372.811811 
L 564.3 326.690323 
L 575.46 252.493695 
L 586.62 165.888094 
L 597.78 73.267408 
L 606.397761 -1 
" style="fill:none;stroke:#228833;stroke-dasharray:7.4,3.2;stroke-dashoffset:0;stroke-width:2;"/>
    </g>
    <g id="patch_11">
     <path d="M 452.7 466.92 
L 452.7 303.84 
" style="fill:none;stroke:#000000;stroke-linecap:square;stroke-linejoin:miter;stroke-width:0.8;"/>
    </g>
    <g id="patch_12">
     <path d="M 620.1 466.92 
L 620.1 303.84 
" style="fill:none;stroke:#000000;stroke-linecap:square;stroke-linejoin:miter;stroke-width:0.8;"/>
    </g>
    <g id="patch_13">
     <path d="M 452.7 466.92 
L 620.1 466.92 
" style="fill:none;stroke:#000000;stroke-linecap:square;stroke-linejoin:miter;stroke-width:0.8;"/>
    </g>
    <g id="patch_14">
     <path d="M 452.7 303.84 
L 620.1 303.84 
" style="fill:none;stroke:#000000;stroke-linecap:square;stroke-linejoin:miter;stroke-width:0.8;"/>
    </g>
   </g>
   <g id="legend_1">
    <g id="patch_15">
     <path d="M 509.063125 623 
L 638.2 623 
Q 641 623 641 620.2 
L 641 561.12 
Q 641 558.32 638.2 558.32 
L 509.063125 558.32 
Q 506.263125 558.32 506.263125 561.12 
L 506.263125 620.2 
Q 506.263125 623 509.063125 623 
z
" style="fill:#edead6;opacity:0.8;stroke:#cccccc;stroke-linejoin:miter;"/>
    </g>
    <g id="line2d_49">
     <path d="M 511.863125 569.24 
L 539.863125 569.24 
" style="fill:none;stroke:#4477aa;stroke-linecap:square;stroke-width:3;"/>
    </g>
    <g id="line2d_50"/>
    <g id="text_24">
     <!-- Gm Output -->
     <g transform="translate(551.063125 574.14)scale(0.14 -0.14)">
      <defs>
       <path d="M 2394 -64 
Q 1792 -64 1353 201 
Q 915 467 675 953 
Q 435 1440 435 2112 
Q 435 2784 688 3270 
Q 941 3757 1395 4022 
Q 1850 4288 2438 4288 
Q 3066 4288 3459 4051 
Q 3853 3814 4096 3322 
L 3629 3066 
Q 3488 3430 3184 3619 
Q 2880 3808 2438 3808 
Q 2010 3808 1680 3606 
Q 1350 3405 1161 3024 
Q 973 2643 973 2112 
Q 973 1581 1136 1200 
Q 1299 819 1622 617 
Q 1946 416 2413 416 
Q 2675 416 2902 483 
Q 3130 550 3299 684 
Q 3469 819 3565 1024 
Q 3661 1229 3661 1504 
L 3661 1651 
L 2317 1651 
L 2317 2131 
L 4128 2131 
L 4128 0 
L 3725 0 
L 3699 787 
L 3808 768 
Q 3642 371 3283 153 
Q 2925 -64 2394 -64 
z
" id="WorkSans-Regular-47" transform="scale(0.015625)"/>
       <path d="M 595 0 
L 595 3200 
L 1043 3200 
L 1075 2701 
Q 1248 2995 1526 3129 
Q 1805 3264 2099 3264 
Q 2438 3264 2739 3110 
Q 3040 2957 3200 2637 
Q 3302 2854 3488 2992 
Q 3674 3130 3894 3197 
Q 4115 3264 4314 3264 
Q 4621 3264 4899 3136 
Q 5178 3008 5357 2739 
Q 5536 2470 5536 2048 
L 5536 0 
L 5024 0 
L 5024 1997 
Q 5024 2432 4806 2624 
Q 4589 2816 4269 2816 
Q 4019 2816 3801 2694 
Q 3584 2573 3453 2336 
Q 3322 2099 3322 1754 
L 3322 0 
L 2810 0 
L 2810 1997 
Q 2810 2432 2592 2624 
Q 2374 2816 2054 2816 
Q 1843 2816 1622 2704 
Q 1402 2592 1254 2349 
Q 1107 2106 1107 1709 
L 1107 0 
L 595 0 
z
" id="WorkSans-Regular-6d" transform="scale(0.015625)"/>
       <path d="M 2394 4288 
Q 2995 4288 3433 4022 
Q 3872 3757 4112 3270 
Q 4352 2784 4352 2112 
Q 4352 1440 4112 953 
Q 3872 467 3433 201 
Q 2995 -64 2394 -64 
Q 1792 -64 1353 201 
Q 915 467 675 953 
Q 435 1440 435 2112 
Q 435 2784 675 3270 
Q 915 3757 1353 4022 
Q 1792 4288 2394 4288 
z
M 2394 3808 
Q 1958 3808 1638 3606 
Q 1318 3405 1145 3024 
Q 973 2643 973 2112 
Q 973 1581 1145 1200 
Q 1318 819 1638 617 
Q 1958 416 2394 416 
Q 2835 416 3152 617 
Q 3469 819 3641 1200 
Q 3814 1581 3814 2112 
Q 3814 2643 3641 3024 
Q 3469 3405 3152 3606 
Q 2835 3808 2394 3808 
z
" id="WorkSans-Regular-4f" transform="scale(0.015625)"/>
      </defs>
      <use xlink:href="#WorkSans-Regular-47"/>
      <use x="72.399994" xlink:href="#WorkSans-Regular-6d"/>
      <use x="167.699982" xlink:href="#WorkSans-Regular-20"/>
      <use x="201.799973" xlink:href="#WorkSans-Regular-4f"/>
      <use x="276.59996" xlink:href="#WorkSans-Regular-75"/>
      <use x="338.299957" xlink:href="#WorkSans-Regular-74"/>
      <use x="380.199951" xlink:href="#WorkSans-Regular-70"/>
      <use x="442.899948" xlink:href="#WorkSans-Regular-75"/>
      <use x="504.599945" xlink:href="#WorkSans-Regular-74"/>
     </g>
    </g>
    <g id="line2d_51">
     <path d="M 511.863125 589.4 
L 539.863125 589.4 
" style="fill:none;stroke:#ee6677;stroke-linecap:square;stroke-width:3;"/>
    </g>
    <g id="line2d_52"/>
    <g id="text_25">
     <!-- FWR Output -->
     <g transform="translate(551.063125 594.3)scale(0.14 -0.14)">
      <defs>
       <path d="M 3648 3744 
L 1203 3744 
L 1203 2381 
L 3110 2381 
L 3110 1901 
L 1203 1901 
L 1203 0 
L 691 0 
L 691 4224 
L 3648 4224 
L 3648 3744 
z
" id="WorkSans-Regular-46" transform="scale(0.015625)"/>
       <path d="M 1478 0 
L 230 4224 
L 762 4224 
L 1805 467 
L 2797 4224 
L 3379 4224 
L 4371 454 
L 5414 4224 
L 5920 4224 
L 4678 0 
L 4045 0 
L 3296 2739 
L 3078 3693 
L 3072 3693 
L 2854 2739 
L 2112 0 
L 1478 0 
z
" id="WorkSans-Regular-57" transform="scale(0.015625)"/>
       <path d="M 2291 4224 
Q 2938 4224 3328 3891 
Q 3718 3558 3718 2989 
Q 3718 2419 3324 2102 
Q 2931 1786 2285 1786 
L 2240 1754 
L 1203 1754 
L 1203 0 
L 691 0 
L 691 4224 
L 2291 4224 
z
M 2285 2234 
Q 2739 2234 2960 2422 
Q 3181 2611 3181 2989 
Q 3181 3366 2960 3555 
Q 2739 3744 2285 3744 
L 1203 3744 
L 1203 2234 
L 2285 2234 
z
M 2579 2131 
L 3974 0 
L 3366 0 
L 2150 1850 
L 2579 2131 
z
" id="WorkSans-Regular-52" transform="scale(0.015625)"/>
      </defs>
      <use xlink:href="#WorkSans-Regular-46"/>
      <use x="60.999985" xlink:href="#WorkSans-Regular-57"/>
      <use x="157.099976" xlink:href="#WorkSans-Regular-52"/>
      <use x="223.59996" xlink:href="#WorkSans-Regular-20"/>
      <use x="257.699951" xlink:href="#WorkSans-Regular-4f"/>
      <use x="332.499939" xlink:href="#WorkSans-Regular-75"/>
      <use x="394.199936" xlink:href="#WorkSans-Regular-74"/>
      <use x="436.09993" xlink:href="#WorkSans-Regular-70"/>
      <use x="498.799927" xlink:href="#WorkSans-Regular-75"/>
      <use x="560.499924" xlink:href="#WorkSans-Regular-74"/>
     </g>
    </g>
    <g id="line2d_53">
     <path d="M 511.863125 609.56 
L 539.863125 609.56 
" style="fill:none;stroke:#228833;stroke-dasharray:11.1,4.8;stroke-dashoffset:0;stroke-width:3;"/>
    </g>
    <g id="line2d_54"/>
    <g id="text_26">
     <!-- |Gm| Output -->
     <g transform="translate(551.063125 614.46)scale(0.14 -0.14)">
      <defs>
       <path d="M 998 4672 
L 998 -1075 
L 557 -1075 
L 557 4672 
L 998 4672 
z
" id="WorkSans-Regular-7c" transform="scale(0.015625)"/>
      </defs>
      <use xlink:href="#WorkSans-Regular-7c"/>
      <use x="24.299988" xlink:href="#WorkSans-Regular-47"/>
      <use x="96.699982" xlink:href="#WorkSans-Regular-6d"/>
      <use x="191.999969" xlink:href="#WorkSans-Regular-7c"/>
      <use x="216.299957" xlink:href="#WorkSans-Regular-20"/>
      <use x="250.399948" xlink:href="#WorkSans-Regular-4f"/>
      <use x="325.199936" xlink:href="#WorkSans-Regular-75"/>
      <use x="386.899933" xlink:href="#WorkSans-Regular-74"/>
      <use x="428.799927" xlink:href="#WorkSans-Regular-70"/>
      <use x="491.499924" xlink:href="#WorkSans-Regular-75"/>
      <use x="553.199921" xlink:href="#WorkSans-Regular-74"/>
     </g>
    </g>
   </g>
  </g>
  <g id="text_27">
   <!-- Simulated On-Chip Gm and FWR Response -->
   <g transform="translate(181.955437 26.664)scale(0.168 -0.168)">
    <defs>
     <path d="M 2048 4288 
Q 2605 4288 3008 4061 
Q 3411 3834 3680 3392 
L 3251 3059 
Q 3014 3469 2716 3638 
Q 2419 3808 1997 3808 
Q 1658 3808 1437 3712 
Q 1216 3616 1113 3459 
Q 1011 3302 1011 3104 
Q 1011 2880 1152 2710 
Q 1293 2541 1715 2445 
L 2630 2240 
Q 3238 2106 3478 1834 
Q 3718 1562 3718 1158 
Q 3718 800 3516 521 
Q 3315 243 2950 89 
Q 2586 -64 2093 -64 
Q 1632 -64 1283 61 
Q 934 186 684 397 
Q 435 608 275 870 
L 723 1235 
Q 845 992 1037 806 
Q 1229 621 1501 518 
Q 1773 416 2125 416 
Q 2451 416 2691 496 
Q 2931 576 3059 733 
Q 3187 890 3187 1114 
Q 3187 1318 3052 1481 
Q 2918 1645 2547 1728 
L 1555 1952 
Q 1165 2042 925 2198 
Q 685 2355 579 2569 
Q 474 2784 474 3034 
Q 474 3373 662 3657 
Q 851 3942 1206 4115 
Q 1562 4288 2048 4288 
z
" id="WorkSans-Regular-53" transform="scale(0.015625)"/>
     <path d="M 1843 -64 
Q 1446 -64 1113 134 
Q 781 333 582 707 
Q 384 1082 384 1600 
Q 384 2131 595 2502 
Q 806 2874 1152 3069 
Q 1498 3264 1894 3264 
Q 2291 3264 2582 3059 
Q 2874 2854 2970 2515 
L 2906 2470 
L 2906 4672 
L 3418 4672 
L 3418 0 
L 2970 0 
L 2925 774 
L 2995 813 
Q 2950 531 2780 336 
Q 2611 141 2364 38 
Q 2118 -64 1843 -64 
z
M 1894 384 
Q 2202 384 2429 537 
Q 2656 691 2781 976 
Q 2906 1261 2906 1645 
Q 2906 2010 2781 2272 
Q 2656 2534 2435 2675 
Q 2214 2816 1920 2816 
Q 1434 2816 1165 2483 
Q 896 2150 896 1600 
Q 896 1050 1158 717 
Q 1421 384 1894 384 
z
" id="WorkSans-Regular-64" transform="scale(0.015625)"/>
     <path d="M 2688 1939 
L 2688 1408 
L 576 1408 
L 576 1939 
L 2688 1939 
z
" id="WorkSans-Regular-2d" transform="scale(0.015625)"/>
     <path d="M 595 0 
L 595 4672 
L 1107 4672 
L 1107 2720 
Q 1274 3008 1549 3136 
Q 1824 3264 2150 3264 
Q 2496 3264 2777 3133 
Q 3059 3002 3228 2733 
Q 3398 2464 3398 2048 
L 3398 0 
L 2886 0 
L 2886 1869 
Q 2886 2400 2659 2608 
Q 2432 2816 2099 2816 
Q 1869 2816 1638 2707 
Q 1408 2598 1257 2352 
Q 1107 2106 1107 1696 
L 1107 0 
L 595 0 
z
" id="WorkSans-Regular-68" transform="scale(0.015625)"/>
     <path d="M 1747 -64 
Q 1280 -64 886 134 
Q 493 333 282 698 
L 717 1011 
Q 858 717 1130 550 
Q 1402 384 1786 384 
Q 2125 384 2317 515 
Q 2509 646 2509 858 
Q 2509 992 2422 1104 
Q 2336 1216 2093 1267 
L 1325 1427 
Q 858 1523 656 1747 
Q 454 1971 454 2304 
Q 454 2566 604 2784 
Q 755 3002 1033 3133 
Q 1312 3264 1690 3264 
Q 2163 3264 2489 3078 
Q 2816 2893 2976 2554 
L 2547 2272 
Q 2438 2554 2195 2685 
Q 1952 2816 1690 2816 
Q 1459 2816 1296 2752 
Q 1133 2688 1046 2576 
Q 960 2464 960 2323 
Q 960 2182 1056 2064 
Q 1152 1946 1414 1894 
L 2214 1728 
Q 2662 1638 2841 1433 
Q 3021 1229 3021 934 
Q 3021 634 2861 406 
Q 2701 179 2413 57 
Q 2125 -64 1747 -64 
z
" id="WorkSans-Regular-73" transform="scale(0.015625)"/>
    </defs>
    <use xlink:href="#WorkSans-Regular-53"/>
    <use x="64.099991" xlink:href="#WorkSans-Regular-69"/>
    <use x="90.699982" xlink:href="#WorkSans-Regular-6d"/>
    <use x="185.999969" xlink:href="#WorkSans-Regular-75"/>
    <use x="247.699966" xlink:href="#WorkSans-Regular-6c"/>
    <use x="278.299957" xlink:href="#WorkSans-Regular-61"/>
    <use x="334.899948" xlink:href="#WorkSans-Regular-74"/>
    <use x="376.799942" xlink:href="#WorkSans-Regular-65"/>
    <use x="434.499939" xlink:href="#WorkSans-Regular-64"/>
    <use x="497.199936" xlink:href="#WorkSans-Regular-20"/>
    <use x="531.299927" xlink:href="#WorkSans-Regular-4f"/>
    <use x="606.099915" xlink:href="#WorkSans-Regular-6e"/>
    <use x="667.999908" xlink:href="#WorkSans-Regular-2d"/>
    <use x="718.999893" xlink:href="#WorkSans-Regular-43"/>
    <use x="787.599884" xlink:href="#WorkSans-Regular-68"/>
    <use x="849.499878" xlink:href="#WorkSans-Regular-69"/>
    <use x="876.099869" xlink:href="#WorkSans-Regular-70"/>
    <use x="938.799866" xlink:href="#WorkSans-Regular-20"/>
    <use x="972.899857" xlink:href="#WorkSans-Regular-47"/>
    <use x="1045.29985" xlink:href="#WorkSans-Regular-6d"/>
    <use x="1140.599838" xlink:href="#WorkSans-Regular-20"/>
    <use x="1174.699829" xlink:href="#WorkSans-Regular-61"/>
    <use x="1231.29982" xlink:href="#WorkSans-Regular-6e"/>
    <use x="1293.199814" xlink:href="#WorkSans-Regular-64"/>
    <use x="1355.899811" xlink:href="#WorkSans-Regular-20"/>
    <use x="1389.999802" xlink:href="#WorkSans-Regular-46"/>
    <use x="1450.999786" xlink:href="#WorkSans-Regular-57"/>
    <use x="1547.099777" xlink:href="#WorkSans-Regular-52"/>
    <use x="1613.599762" xlink:href="#WorkSans-Regular-20"/>
    <use x="1647.699753" xlink:href="#WorkSans-Regular-52"/>
    <use x="1714.199738" xlink:href="#WorkSans-Regular-65"/>
    <use x="1771.899734" xlink:href="#WorkSans-Regular-73"/>
    <use x="1824.599731" xlink:href="#WorkSans-Regular-70"/>
    <use x="1887.299728" xlink:href="#WorkSans-Regular-6f"/>
    <use x="1947.299713" xlink:href="#WorkSans-Regular-6e"/>
    <use x="2009.199707" xlink:href="#WorkSans-Regular-73"/>
    <use x="2061.899704" xlink:href="#WorkSans-Regular-65"/>
   </g>
  </g>
 </g>
 <defs>
  <clipPath id="pe38dfa3148">
   <rect height="543.6" width="558" x="90" y="86.4"/>
  </clipPath>
  <clipPath id="p25a5931ad9">
   <rect height="163.08" width="167.4" x="452.7" y="303.84"/>
  </clipPath>
 </defs>
</svg>
